<svg width="1280" height="720" xmlns="http://www.w3.org/2000/svg" xmlns:xlink="http://www.w3.org/1999/xlink" overflow="hidden"><defs><clipPath id="clip0"><rect x="0" y="0" width="1280" height="720"/></clipPath></defs><g clip-path="url(#clip0)"><rect x="0" y="0" width="1280" height="720" fill="#FFFFFF"/><path d="M50.5001 486.5C50.5001 482.634 61.9168 479.5 76.0001 479.5 90.0833 479.5 101.5 482.634 101.5 486.5 101.5 490.366 90.0833 493.5 76.0001 493.5 61.9168 493.5 50.5001 490.366 50.5001 486.5Z" stroke="#2F528F" stroke-width="1.33333" stroke-miterlimit="8" fill="none" fill-rule="evenodd"/><path d="M67.5001 427.5C67.5001 423.634 77.7975 420.5 90.5001 420.5 103.203 420.5 113.5 423.634 113.5 427.5 113.5 431.366 103.203 434.5 90.5001 434.5 77.7975 434.5 67.5001 431.366 67.5001 427.5Z" stroke="#2F528F" stroke-width="1.33333" stroke-miterlimit="8" fill="none" fill-rule="evenodd"/><path d="M85.5001 364C85.5001 359.858 93.7828 356.5 104 356.5 114.217 356.5 122.5 359.858 122.5 364 122.5 368.142 114.217 371.5 104 371.5 93.7828 371.5 85.5001 368.142 85.5001 364Z" stroke="#2F528F" stroke-width="1.33333" stroke-miterlimit="8" fill="none" fill-rule="evenodd"/><path d="M146.5 199.5C146.5 196.186 152.32 193.5 159.5 193.5 166.68 193.5 172.5 196.186 172.5 199.5 172.5 202.814 166.68 205.5 159.5 205.5 152.32 205.5 146.5 202.814 146.5 199.5Z" stroke="#2F528F" stroke-width="1.33333" stroke-miterlimit="8" fill="none" fill-rule="evenodd"/><path d="M172.5 140C172.5 136.962 177.873 134.5 184.5 134.5 191.127 134.5 196.5 136.962 196.5 140 196.5 143.038 191.127 145.5 184.5 145.5 177.873 145.5 172.5 143.038 172.5 140Z" stroke="#2F528F" stroke-width="1.33333" stroke-miterlimit="8" fill="none" fill-rule="evenodd"/><path d="M107.5 305.5C107.5 302.186 114.216 299.5 122.5 299.5 130.784 299.5 137.5 302.186 137.5 305.5 137.5 308.814 130.784 311.5 122.5 311.5 114.216 311.5 107.5 308.814 107.5 305.5Z" stroke="#2F528F" stroke-width="1.33333" stroke-miterlimit="8" fill="none" fill-rule="evenodd"/><path d="M123.5 253.5C123.5 250.186 130.44 247.5 139 247.5 147.56 247.5 154.5 250.186 154.5 253.5 154.5 256.814 147.56 259.5 139 259.5 130.44 259.5 123.5 256.814 123.5 253.5Z" stroke="#2F528F" stroke-width="1.33333" stroke-miterlimit="8" fill="none" fill-rule="evenodd"/><path d="M181.5 140C181.5 138.619 182.843 137.5 184.5 137.5 186.157 137.5 187.5 138.619 187.5 140 187.5 141.381 186.157 142.5 184.5 142.5 182.843 142.5 181.5 141.381 181.5 140Z" stroke="#FF0000" stroke-width="1.33333" stroke-miterlimit="8" fill="#FF0000" fill-rule="evenodd"/><path d="M157.5 199.5C157.5 197.843 158.843 196.5 160.5 196.5 162.157 196.5 163.5 197.843 163.5 199.5 163.5 201.157 162.157 202.5 160.5 202.5 158.843 202.5 157.5 201.157 157.5 199.5Z" stroke="#FF0000" stroke-width="1.33333" stroke-miterlimit="8" fill="#FF0000" fill-rule="evenodd"/><path d="M136.5 253.5C136.5 251.843 137.619 250.5 139 250.5 140.381 250.5 141.5 251.843 141.5 253.5 141.5 255.157 140.381 256.5 139 256.5 137.619 256.5 136.5 255.157 136.5 253.5Z" stroke="#FF0000" stroke-width="1.33333" stroke-miterlimit="8" fill="#FF0000" fill-rule="evenodd"/><path d="M119.5 304.5C119.5 302.843 120.843 301.5 122.5 301.5 124.157 301.5 125.5 302.843 125.5 304.5 125.5 306.157 124.157 307.5 122.5 307.5 120.843 307.5 119.5 306.157 119.5 304.5Z" stroke="#FF0000" stroke-width="1.33333" stroke-miterlimit="8" fill="#FF0000" fill-rule="evenodd"/><path d="M100.5 364C100.5 362.619 101.843 361.5 103.5 361.5 105.157 361.5 106.5 362.619 106.5 364 106.5 365.381 105.157 366.5 103.5 366.5 101.843 366.5 100.5 365.381 100.5 364Z" stroke="#FF0000" stroke-width="1.33333" stroke-miterlimit="8" fill="#FF0000" fill-rule="evenodd"/><path d="M85.5001 427.5C85.5001 425.843 86.6193 424.5 88.0001 424.5 89.3808 424.5 90.5001 425.843 90.5001 427.5 90.5001 429.157 89.3808 430.5 88.0001 430.5 86.6193 430.5 85.5001 429.157 85.5001 427.5Z" stroke="#FF0000" stroke-width="1.33333" stroke-miterlimit="8" fill="#FF0000" fill-rule="evenodd"/><path d="M72.5001 486.5C72.5001 484.843 73.8432 483.5 75.5001 483.5 77.1569 483.5 78.5001 484.843 78.5001 486.5 78.5001 488.157 77.1569 489.5 75.5001 489.5 73.8432 489.5 72.5001 488.157 72.5001 486.5Z" stroke="#FF0000" stroke-width="1.33333" stroke-miterlimit="8" fill="#FF0000" fill-rule="evenodd"/><text font-family="Calibri,Calibri_MSFontService,sans-serif" font-weight="700" font-size="24" transform="translate(16.6988 99)">Tree A</text><path d="M75 487 127.464 487" stroke="#FF0000" stroke-width="2" stroke-miterlimit="8" fill="none" fill-rule="evenodd"/><path d="M80.3911 459.659C93.293 463.626 104.038 473.685 104.392 482.125 104.456 483.653 104.169 485.064 103.542 486.312" stroke="#FF0000" stroke-width="1.33333" stroke-miterlimit="8" fill="none" fill-rule="evenodd"/><path d="M0.327496-0.0621062 10.062 51.2693 9.40696 51.3935-0.327496 0.0621062ZM13.416 49.2762 10.9766 57.8814 5.55608 50.7667Z" transform="matrix(1 0 0 -1 75.5001 487.381)"/><path d="M0.324131-0.0777826 26.8444 110.436 26.1961 110.591-0.324131 0.0777826ZM30.0987 108.284 28.0759 116.996 22.3195 110.15Z" transform="matrix(1 0 0 -1 75.5001 483.496)"/><path d="M0.32193-0.0864424 45.9308 169.771 45.287 169.944-0.32193 0.0864424ZM49.1263 167.532 47.3377 176.296 41.4 169.607Z" transform="matrix(1 0 0 -1 75.5001 483.796)"/><path d="M0.321017-0.0897732 62.2084 221.211 61.5663 221.391-0.321017 0.0897732ZM65.3804 218.939 63.6827 227.721 57.676 221.094Z" transform="matrix(1 0 0 -1 75.5001 484.221)"/><path d="M0.319738-0.0942255 81.6175 275.776 80.978 275.964-0.319738 0.0942255ZM84.7579 273.461 83.1825 282.266 77.0842 275.723Z" transform="matrix(1 0 0 -1 75.5001 483.766)"/><path d="M0.317985-0.0999829 105.86 335.565 105.224 335.765-0.317985 0.0999829ZM108.958 333.193 107.541 342.024 101.326 335.592Z" transform="matrix(1 0 0 -1 75.5001 483.524)"/><path d="M179.5 489C179.5 484.858 190.917 481.5 205 481.5 219.083 481.5 230.5 484.858 230.5 489 230.5 493.142 219.083 496.5 205 496.5 190.917 496.5 179.5 493.142 179.5 489Z" stroke="#2F528F" stroke-width="1.33333" stroke-miterlimit="8" fill="none" fill-rule="evenodd"/><path d="M197.5 429.5C197.5 425.634 207.574 422.5 220 422.5 232.426 422.5 242.5 425.634 242.5 429.5 242.5 433.366 232.426 436.5 220 436.5 207.574 436.5 197.5 433.366 197.5 429.5Z" stroke="#2F528F" stroke-width="1.33333" stroke-miterlimit="8" fill="none" fill-rule="evenodd"/><path d="M214.5 366C214.5 361.858 223.007 358.5 233.5 358.5 243.993 358.5 252.5 361.858 252.5 366 252.5 370.142 243.993 373.5 233.5 373.5 223.007 373.5 214.5 370.142 214.5 366Z" stroke="#2F528F" stroke-width="1.33333" stroke-miterlimit="8" fill="none" fill-rule="evenodd"/><path d="M275.5 201.5C275.5 198.186 281.544 195.5 289 195.5 296.456 195.5 302.5 198.186 302.5 201.5 302.5 204.814 296.456 207.5 289 207.5 281.544 207.5 275.5 204.814 275.5 201.5Z" stroke="#2F528F" stroke-width="1.33333" stroke-miterlimit="8" fill="none" fill-rule="evenodd"/><path d="M302.5 142C302.5 138.962 307.873 136.5 314.5 136.5 321.127 136.5 326.5 138.962 326.5 142 326.5 145.038 321.127 147.5 314.5 147.5 307.873 147.5 302.5 145.038 302.5 142Z" stroke="#2F528F" stroke-width="1.33333" stroke-miterlimit="8" fill="none" fill-rule="evenodd"/><path d="M236.5 307.5C236.5 304.186 243.44 301.5 252 301.5 260.56 301.5 267.5 304.186 267.5 307.5 267.5 310.814 260.56 313.5 252 313.5 243.44 313.5 236.5 310.814 236.5 307.5Z" stroke="#2F528F" stroke-width="1.33333" stroke-miterlimit="8" fill="none" fill-rule="evenodd"/><path d="M253.5 255.5C253.5 252.186 260.216 249.5 268.5 249.5 276.784 249.5 283.5 252.186 283.5 255.5 283.5 258.814 276.784 261.5 268.5 261.5 260.216 261.5 253.5 258.814 253.5 255.5Z" stroke="#2F528F" stroke-width="1.33333" stroke-miterlimit="8" fill="none" fill-rule="evenodd"/><path d="M311.5 142C311.5 140.619 312.843 139.5 314.5 139.5 316.157 139.5 317.5 140.619 317.5 142 317.5 143.381 316.157 144.5 314.5 144.5 312.843 144.5 311.5 143.381 311.5 142Z" stroke="#FF0000" stroke-width="1.33333" stroke-miterlimit="8" fill="#FF0000" fill-rule="evenodd"/><path d="M287.5 201.5C287.5 199.843 288.619 198.5 290 198.5 291.381 198.5 292.5 199.843 292.5 201.5 292.5 203.157 291.381 204.5 290 204.5 288.619 204.5 287.5 203.157 287.5 201.5Z" stroke="#FF0000" stroke-width="1.33333" stroke-miterlimit="8" fill="#FF0000" fill-rule="evenodd"/><path d="M265.5 255.5C265.5 253.843 266.843 252.5 268.5 252.5 270.157 252.5 271.5 253.843 271.5 255.5 271.5 257.157 270.157 258.5 268.5 258.5 266.843 258.5 265.5 257.157 265.5 255.5Z" stroke="#FF0000" stroke-width="1.33333" stroke-miterlimit="8" fill="#FF0000" fill-rule="evenodd"/><path d="M249.5 306.5C249.5 304.843 250.619 303.5 252 303.5 253.381 303.5 254.5 304.843 254.5 306.5 254.5 308.157 253.381 309.5 252 309.5 250.619 309.5 249.5 308.157 249.5 306.5Z" stroke="#FF0000" stroke-width="1.33333" stroke-miterlimit="8" fill="#FF0000" fill-rule="evenodd"/><path d="M230.5 366C230.5 364.619 231.619 363.5 233 363.5 234.381 363.5 235.5 364.619 235.5 366 235.5 367.381 234.381 368.5 233 368.5 231.619 368.5 230.5 367.381 230.5 366Z" stroke="#FF0000" stroke-width="1.33333" stroke-miterlimit="8" fill="#FF0000" fill-rule="evenodd"/><path d="M217.5 429.5C217.5 427.843 218.619 426.5 220 426.5 221.381 426.5 222.5 427.843 222.5 429.5 222.5 431.157 221.381 432.5 220 432.5 218.619 432.5 217.5 431.157 217.5 429.5Z" stroke="#FF0000" stroke-width="1.33333" stroke-miterlimit="8" fill="#FF0000" fill-rule="evenodd"/><path d="M201.5 488.5C201.5 486.843 202.843 485.5 204.5 485.5 206.157 485.5 207.5 486.843 207.5 488.5 207.5 490.157 206.157 491.5 204.5 491.5 202.843 491.5 201.5 490.157 201.5 488.5Z" stroke="#FF0000" stroke-width="1.33333" stroke-miterlimit="8" fill="#FF0000" fill-rule="evenodd"/><path d="M0.325563-0.0715518 11.6304 51.3658 10.9793 51.5089-0.325563 0.0715518ZM14.9254 49.2764 12.7359 57.9486 7.11185 50.9937Z" transform="matrix(1 0 0 -1 220.5 426.449)"/><text font-family="Calibri,Calibri_MSFontService,sans-serif" font-weight="400" font-size="19" transform="translate(27.9822 523)">Tree A <tspan font-size="19" x="52.0933" y="0">–</tspan><tspan font-size="19" x="0" y="23">Section </tspan><tspan font-size="19" x="60.1667" y="23">1</tspan><tspan font-size="19" x="129.611" y="0">Tree A </tspan>–<tspan font-size="19" x="129.611" y="23">Section </tspan>2<tspan font-size="19" x="249.718" y="-1">Tree A </tspan>–<tspan font-size="19" x="249.718" y="22">Section </tspan>3<tspan font-size="19" x="372.129" y="-1">Tree A </tspan><tspan font-size="19" x="424.222" y="-1">–</tspan><tspan font-size="19" x="372.129" y="22">Section </tspan><tspan font-size="19" x="432.296" y="22">7</tspan></text><path d="M0.321573-0.0877592 30.5641 110.729 29.9209 110.904-0.321573 0.0877592ZM33.7504 108.477 31.9977 117.248 26.0326 110.584Z" transform="matrix(1 0 0 -1 220.5 426.748)"/><path d="M0.320432-0.0918377 46.8263 162.173 46.1855 162.356-0.320432 0.0918377ZM49.9838 159.881 48.3427 168.673 42.2934 162.085Z" transform="matrix(1 0 0 -1 220.5 427.173)"/><path d="M0.323638-0.0798074 12.0876 47.6259 11.4403 47.7855-0.323638 0.0798074ZM15.3284 45.4535 13.3601 54.1785 7.56106 47.3688Z" transform="matrix(-1 0 0 1 217.86 431.5)"/><path d="M0.318928-0.0969316 66.2229 216.743 65.585 216.937-0.318928 0.0969316ZM69.3432 214.4 67.8424 223.218 61.6889 216.727Z" transform="matrix(1 0 0 -1 220.5 426.718)"/><path d="M0.316934-0.103266 90.4532 276.535 89.8193 276.741-0.316934 0.103266ZM93.5262 274.131 92.2014 282.976 85.9198 276.609Z" transform="matrix(1 0 0 -1 220.5 426.476)"/><path d="M294.5 489C294.5 484.858 305.917 481.5 320 481.5 334.083 481.5 345.5 484.858 345.5 489 345.5 493.142 334.083 496.5 320 496.5 305.917 496.5 294.5 493.142 294.5 489Z" stroke="#2F528F" stroke-width="1.33333" stroke-miterlimit="8" fill="none" fill-rule="evenodd"/><path d="M312.5 429.5C312.5 425.634 322.574 422.5 335 422.5 347.426 422.5 357.5 425.634 357.5 429.5 357.5 433.366 347.426 436.5 335 436.5 322.574 436.5 312.5 433.366 312.5 429.5Z" stroke="#2F528F" stroke-width="1.33333" stroke-miterlimit="8" fill="none" fill-rule="evenodd"/><path d="M329.5 366C329.5 361.858 338.007 358.5 348.5 358.5 358.993 358.5 367.5 361.858 367.5 366 367.5 370.142 358.993 373.5 348.5 373.5 338.007 373.5 329.5 370.142 329.5 366Z" stroke="#2F528F" stroke-width="1.33333" stroke-miterlimit="8" fill="none" fill-rule="evenodd"/><path d="M391.5 201.5C391.5 198.186 397.32 195.5 404.5 195.5 411.68 195.5 417.5 198.186 417.5 201.5 417.5 204.814 411.68 207.5 404.5 207.5 397.32 207.5 391.5 204.814 391.5 201.5Z" stroke="#2F528F" stroke-width="1.33333" stroke-miterlimit="8" fill="none" fill-rule="evenodd"/><path d="M417.5 142C417.5 138.962 422.873 136.5 429.5 136.5 436.127 136.5 441.5 138.962 441.5 142 441.5 145.038 436.127 147.5 429.5 147.5 422.873 147.5 417.5 145.038 417.5 142Z" stroke="#2F528F" stroke-width="1.33333" stroke-miterlimit="8" fill="none" fill-rule="evenodd"/><path d="M352.5 307.5C352.5 304.186 359.216 301.5 367.5 301.5 375.784 301.5 382.5 304.186 382.5 307.5 382.5 310.814 375.784 313.5 367.5 313.5 359.216 313.5 352.5 310.814 352.5 307.5Z" stroke="#2F528F" stroke-width="1.33333" stroke-miterlimit="8" fill="none" fill-rule="evenodd"/><path d="M368.5 255.5C368.5 252.186 375.216 249.5 383.5 249.5 391.784 249.5 398.5 252.186 398.5 255.5 398.5 258.814 391.784 261.5 383.5 261.5 375.216 261.5 368.5 258.814 368.5 255.5Z" stroke="#2F528F" stroke-width="1.33333" stroke-miterlimit="8" fill="none" fill-rule="evenodd"/><path d="M426.5 142C426.5 140.619 427.843 139.5 429.5 139.5 431.157 139.5 432.5 140.619 432.5 142 432.5 143.381 431.157 144.5 429.5 144.5 427.843 144.5 426.5 143.381 426.5 142Z" stroke="#FF0000" stroke-width="1.33333" stroke-miterlimit="8" fill="#FF0000" fill-rule="evenodd"/><path d="M402.5 201.5C402.5 199.843 403.619 198.5 405 198.5 406.381 198.5 407.5 199.843 407.5 201.5 407.5 203.157 406.381 204.5 405 204.5 403.619 204.5 402.5 203.157 402.5 201.5Z" stroke="#FF0000" stroke-width="1.33333" stroke-miterlimit="8" fill="#FF0000" fill-rule="evenodd"/><path d="M380.5 255.5C380.5 253.843 381.843 252.5 383.5 252.5 385.157 252.5 386.5 253.843 386.5 255.5 386.5 257.157 385.157 258.5 383.5 258.5 381.843 258.5 380.5 257.157 380.5 255.5Z" stroke="#FF0000" stroke-width="1.33333" stroke-miterlimit="8" fill="#FF0000" fill-rule="evenodd"/><path d="M364.5 306.5C364.5 304.843 365.843 303.5 367.5 303.5 369.157 303.5 370.5 304.843 370.5 306.5 370.5 308.157 369.157 309.5 367.5 309.5 365.843 309.5 364.5 308.157 364.5 306.5Z" stroke="#FF0000" stroke-width="1.33333" stroke-miterlimit="8" fill="#FF0000" fill-rule="evenodd"/><path d="M345.5 366C345.5 364.619 346.619 363.5 348 363.5 349.381 363.5 350.5 364.619 350.5 366 350.5 367.381 349.381 368.5 348 368.5 346.619 368.5 345.5 367.381 345.5 366Z" stroke="#FF0000" stroke-width="1.33333" stroke-miterlimit="8" fill="#FF0000" fill-rule="evenodd"/><path d="M332.5 429.5C332.5 427.843 333.843 426.5 335.5 426.5 337.157 426.5 338.5 427.843 338.5 429.5 338.5 431.157 337.157 432.5 335.5 432.5 333.843 432.5 332.5 431.157 332.5 429.5Z" stroke="#FF0000" stroke-width="1.33333" stroke-miterlimit="8" fill="#FF0000" fill-rule="evenodd"/><path d="M317.5 488.5C317.5 486.843 318.619 485.5 320 485.5 321.381 485.5 322.5 486.843 322.5 488.5 322.5 490.157 321.381 491.5 320 491.5 318.619 491.5 317.5 490.157 317.5 488.5Z" stroke="#FF0000" stroke-width="1.33333" stroke-miterlimit="8" fill="#FF0000" fill-rule="evenodd"/><path d="M0.317704-0.100872 15.5821 47.9755 14.9467 48.1772-0.317704 0.100872ZM18.6734 45.5951 17.2819 54.4304 11.0485 48.016Z" transform="matrix(1 0 0 -1 347.5 362.931)"/><text font-family="Calibri,Calibri_MSFontService,sans-serif" font-weight="400" font-size="19" transform="translate(374.334 527)">…</text><path d="M0.317689-0.10092 31.9262 99.4009 31.2908 99.6027-0.317689 0.10092ZM35.0171 97.02 33.6269 105.856 27.3925 99.442Z" transform="matrix(1 0 0 -1 347.5 363.356)"/><path d="M0.315073-0.108812 53.2453 153.154 52.6151 153.372-0.315073 0.108812ZM56.2759 150.697 55.1066 159.565 48.7142 153.309Z" transform="matrix(1 0 0 -1 347.5 363.065)"/><path d="M0.313397-0.11355 77.5077 212.941 76.8809 213.168-0.313397 0.11355ZM80.5011 210.439 79.4655 219.323 72.9795 213.164Z" transform="matrix(1 0 0 -1 347.5 362.823)"/><path d="M0.32789-0.0599952 9.8839 52.1662 9.22812 52.2862-0.32789 0.0599952ZM13.2507 50.1946 10.7559 58.7839 5.38134 51.6345Z" transform="matrix(-1 0 0 1 346.256 368.5)"/><path d="M0.325448-0.0720763 24.9798 111.25 24.3289 111.395-0.325448 0.0720763ZM28.2715 109.156 26.096 117.832 20.4608 110.886Z" transform="matrix(-1 0 0 1 345.596 368.5)"/><path d="M407.5 489.5C407.5 485.634 418.917 482.5 433 482.5 447.083 482.5 458.5 485.634 458.5 489.5 458.5 493.366 447.083 496.5 433 496.5 418.917 496.5 407.5 493.366 407.5 489.5Z" stroke="#2F528F" stroke-width="1.33333" stroke-miterlimit="8" fill="none" fill-rule="evenodd"/><path d="M425.5 430C425.5 426.41 435.574 423.5 448 423.5 460.426 423.5 470.5 426.41 470.5 430 470.5 433.59 460.426 436.5 448 436.5 435.574 436.5 425.5 433.59 425.5 430Z" stroke="#2F528F" stroke-width="1.33333" stroke-miterlimit="8" fill="none" fill-rule="evenodd"/><path d="M442.5 367C442.5 362.858 451.007 359.5 461.5 359.5 471.993 359.5 480.5 362.858 480.5 367 480.5 371.142 471.993 374.5 461.5 374.5 451.007 374.5 442.5 371.142 442.5 367Z" stroke="#2F528F" stroke-width="1.33333" stroke-miterlimit="8" fill="none" fill-rule="evenodd"/><path d="M504.5 202.5C504.5 199.186 510.32 196.5 517.5 196.5 524.68 196.5 530.5 199.186 530.5 202.5 530.5 205.814 524.68 208.5 517.5 208.5 510.32 208.5 504.5 205.814 504.5 202.5Z" stroke="#2F528F" stroke-width="1.33333" stroke-miterlimit="8" fill="none" fill-rule="evenodd"/><path d="M530.5 143C530.5 139.962 535.873 137.5 542.5 137.5 549.128 137.5 554.5 139.962 554.5 143 554.5 146.038 549.128 148.5 542.5 148.5 535.873 148.5 530.5 146.038 530.5 143Z" stroke="#2F528F" stroke-width="1.33333" stroke-miterlimit="8" fill="none" fill-rule="evenodd"/><path d="M465.5 308C465.5 304.962 472.216 302.5 480.5 302.5 488.784 302.5 495.5 304.962 495.5 308 495.5 311.038 488.784 313.5 480.5 313.5 472.216 313.5 465.5 311.038 465.5 308Z" stroke="#2F528F" stroke-width="1.33333" stroke-miterlimit="8" fill="none" fill-rule="evenodd"/><path d="M481.5 256C481.5 252.962 488.216 250.5 496.5 250.5 504.784 250.5 511.5 252.962 511.5 256 511.5 259.038 504.784 261.5 496.5 261.5 488.216 261.5 481.5 259.038 481.5 256Z" stroke="#2F528F" stroke-width="1.33333" stroke-miterlimit="8" fill="none" fill-rule="evenodd"/><path d="M539.5 142.5C539.5 140.843 540.843 139.5 542.5 139.5 544.157 139.5 545.5 140.843 545.5 142.5 545.5 144.157 544.157 145.5 542.5 145.5 540.843 145.5 539.5 144.157 539.5 142.5Z" stroke="#FF0000" stroke-width="1.33333" stroke-miterlimit="8" fill="#FF0000" fill-rule="evenodd"/><path d="M515.5 202.5C515.5 200.843 516.619 199.5 518 199.5 519.381 199.5 520.5 200.843 520.5 202.5 520.5 204.157 519.381 205.5 518 205.5 516.619 205.5 515.5 204.157 515.5 202.5Z" stroke="#FF0000" stroke-width="1.33333" stroke-miterlimit="8" fill="#FF0000" fill-rule="evenodd"/><path d="M493.5 256.5C493.5 254.843 494.843 253.5 496.5 253.5 498.157 253.5 499.5 254.843 499.5 256.5 499.5 258.157 498.157 259.5 496.5 259.5 494.843 259.5 493.5 258.157 493.5 256.5Z" stroke="#FF0000" stroke-width="1.33333" stroke-miterlimit="8" fill="#FF0000" fill-rule="evenodd"/><path d="M477.5 307.5C477.5 305.843 478.619 304.5 480 304.5 481.381 304.5 482.5 305.843 482.5 307.5 482.5 309.157 481.381 310.5 480 310.5 478.619 310.5 477.5 309.157 477.5 307.5Z" stroke="#FF0000" stroke-width="1.33333" stroke-miterlimit="8" fill="#FF0000" fill-rule="evenodd"/><path d="M458.5 367C458.5 365.619 459.619 364.5 461 364.5 462.381 364.5 463.5 365.619 463.5 367 463.5 368.381 462.381 369.5 461 369.5 459.619 369.5 458.5 368.381 458.5 367Z" stroke="#FF0000" stroke-width="1.33333" stroke-miterlimit="8" fill="#FF0000" fill-rule="evenodd"/><path d="M445.5 430.5C445.5 428.843 446.619 427.5 448 427.5 449.381 427.5 450.5 428.843 450.5 430.5 450.5 432.157 449.381 433.5 448 433.5 446.619 433.5 445.5 432.157 445.5 430.5Z" stroke="#FF0000" stroke-width="1.33333" stroke-miterlimit="8" fill="#FF0000" fill-rule="evenodd"/><path d="M430.5 489.5C430.5 487.843 431.619 486.5 433 486.5 434.381 486.5 435.5 487.843 435.5 489.5 435.5 491.157 434.381 492.5 433 492.5 431.619 492.5 430.5 491.157 430.5 489.5Z" stroke="#FF0000" stroke-width="1.33333" stroke-miterlimit="8" fill="#FF0000" fill-rule="evenodd"/><path d="M0.308665-0.125846 20.1707 48.5901 19.5534 48.8418-0.308665 0.125846ZM23.0627 45.9711 22.379 54.8892 15.6547 48.9914Z" transform="matrix(-1 0 0 1 540.879 144.5)"/><path d="M0.309079-0.124825 41.6713 102.292 41.0531 102.542-0.309079 0.124825ZM44.5718 99.6827 43.8587 108.599 37.1539 102.679Z" transform="matrix(-1 0 0 1 540.359 144.5)"/><path d="M0.311985-0.117374 58.1682 153.667 57.5442 153.901-0.311985 0.117374ZM61.1305 151.128 60.2037 160.024 53.6429 153.944Z" transform="matrix(-1 0 0 1 540.704 144.5)"/><path d="M0.313397-0.11355 77.5077 212.941 76.8809 213.168-0.313397 0.11355ZM80.5011 210.439 79.4655 219.323 72.9795 213.164Z" transform="matrix(-1 0 0 1 539.966 144.5)"/><path d="M0.316934-0.103266 90.4532 276.535 89.8193 276.741-0.316934 0.103266ZM93.5262 274.131 92.2014 282.976 85.9198 276.609Z" transform="matrix(-1 0 0 1 540.701 144.5)"/><path d="M0.317985-0.0999829 105.86 335.565 105.224 335.765-0.317985 0.0999829ZM108.958 333.193 107.541 342.024 101.326 335.592Z" transform="matrix(-1 0 0 1 540.041 144.5)"/><text font-family="Arial,Arial_MSFontService,sans-serif" font-weight="400" font-size="13" transform="translate(104.183 466)">Angles<tspan font-size="9" x="40.5" y="2">S1_1</tspan><tspan font-size="9" x="61.5" y="2">-</tspan><tspan font-size="9" x="64.5" y="2">7</tspan><tspan font-size="13" x="118.393" y="1">Angles</tspan><tspan font-size="9" x="158.893" y="3">S2_1</tspan><tspan font-size="9" x="179.893" y="3">-</tspan><tspan font-size="9" x="182.893" y="3">7</tspan><tspan font-size="13" x="231.977" y="5">Angles</tspan><tspan font-size="9" x="272.477" y="7">S3_1</tspan><tspan font-size="9" x="293.477" y="7">-</tspan><tspan font-size="9" x="296.477" y="7">7</tspan><tspan font-size="13" x="349.516" y="8">Angles</tspan><tspan font-size="9" x="390.016" y="10">S7_1</tspan><tspan font-size="9" x="411.016" y="10">-</tspan><tspan font-size="9" x="414.016" y="10">7</tspan></text><path d="M589.5 486.5C589.5 482.634 600.917 479.5 615 479.5 629.083 479.5 640.5 482.634 640.5 486.5 640.5 490.366 629.083 493.5 615 493.5 600.917 493.5 589.5 490.366 589.5 486.5Z" stroke="#2F528F" stroke-width="1.33333" stroke-miterlimit="8" fill="none" fill-rule="evenodd"/><path d="M607.5 427.5C607.5 423.634 617.574 420.5 630 420.5 642.426 420.5 652.5 423.634 652.5 427.5 652.5 431.366 642.426 434.5 630 434.5 617.574 434.5 607.5 431.366 607.5 427.5Z" stroke="#2F528F" stroke-width="1.33333" stroke-miterlimit="8" fill="none" fill-rule="evenodd"/><path d="M624.5 364C624.5 359.858 633.007 356.5 643.5 356.5 653.993 356.5 662.5 359.858 662.5 364 662.5 368.142 653.993 371.5 643.5 371.5 633.007 371.5 624.5 368.142 624.5 364Z" stroke="#2F528F" stroke-width="1.33333" stroke-miterlimit="8" fill="none" fill-rule="evenodd"/><path d="M685.5 199.5C685.5 196.186 691.32 193.5 698.5 193.5 705.68 193.5 711.5 196.186 711.5 199.5 711.5 202.814 705.68 205.5 698.5 205.5 691.32 205.5 685.5 202.814 685.5 199.5Z" stroke="#2F528F" stroke-width="1.33333" stroke-miterlimit="8" fill="none" fill-rule="evenodd"/><path d="M711.5 140C711.5 136.962 716.873 134.5 723.5 134.5 730.128 134.5 735.5 136.962 735.5 140 735.5 143.038 730.128 145.5 723.5 145.5 716.873 145.5 711.5 143.038 711.5 140Z" stroke="#2F528F" stroke-width="1.33333" stroke-miterlimit="8" fill="none" fill-rule="evenodd"/><path d="M646.5 305.5C646.5 302.186 653.216 299.5 661.5 299.5 669.784 299.5 676.5 302.186 676.5 305.5 676.5 308.814 669.784 311.5 661.5 311.5 653.216 311.5 646.5 308.814 646.5 305.5Z" stroke="#2F528F" stroke-width="1.33333" stroke-miterlimit="8" fill="none" fill-rule="evenodd"/><path d="M662.5 253.5C662.5 250.186 669.44 247.5 678 247.5 686.56 247.5 693.5 250.186 693.5 253.5 693.5 256.814 686.56 259.5 678 259.5 669.44 259.5 662.5 256.814 662.5 253.5Z" stroke="#2F528F" stroke-width="1.33333" stroke-miterlimit="8" fill="none" fill-rule="evenodd"/><path d="M721.5 140C721.5 138.619 722.619 137.5 724 137.5 725.381 137.5 726.5 138.619 726.5 140 726.5 141.381 725.381 142.5 724 142.5 722.619 142.5 721.5 141.381 721.5 140Z" stroke="#FF0000" stroke-width="1.33333" stroke-miterlimit="8" fill="#FF0000" fill-rule="evenodd"/><path d="M696.5 199.5C696.5 197.843 697.843 196.5 699.5 196.5 701.157 196.5 702.5 197.843 702.5 199.5 702.5 201.157 701.157 202.5 699.5 202.5 697.843 202.5 696.5 201.157 696.5 199.5Z" stroke="#FF0000" stroke-width="1.33333" stroke-miterlimit="8" fill="#FF0000" fill-rule="evenodd"/><path d="M675.5 253.5C675.5 251.843 676.619 250.5 678 250.5 679.381 250.5 680.5 251.843 680.5 253.5 680.5 255.157 679.381 256.5 678 256.5 676.619 256.5 675.5 255.157 675.5 253.5Z" stroke="#FF0000" stroke-width="1.33333" stroke-miterlimit="8" fill="#FF0000" fill-rule="evenodd"/><path d="M658.5 304.5C658.5 302.843 659.843 301.5 661.5 301.5 663.157 301.5 664.5 302.843 664.5 304.5 664.5 306.157 663.157 307.5 661.5 307.5 659.843 307.5 658.5 306.157 658.5 304.5Z" stroke="#FF0000" stroke-width="1.33333" stroke-miterlimit="8" fill="#FF0000" fill-rule="evenodd"/><path d="M639.5 364C639.5 362.619 640.843 361.5 642.5 361.5 644.157 361.5 645.5 362.619 645.5 364 645.5 365.381 644.157 366.5 642.5 366.5 640.843 366.5 639.5 365.381 639.5 364Z" stroke="#FF0000" stroke-width="1.33333" stroke-miterlimit="8" fill="#FF0000" fill-rule="evenodd"/><path d="M624.5 427.5C624.5 425.843 625.619 424.5 627 424.5 628.381 424.5 629.5 425.843 629.5 427.5 629.5 429.157 628.381 430.5 627 430.5 625.619 430.5 624.5 429.157 624.5 427.5Z" stroke="#FF0000" stroke-width="1.33333" stroke-miterlimit="8" fill="#FF0000" fill-rule="evenodd"/><path d="M611.5 486.5C611.5 484.843 612.843 483.5 614.5 483.5 616.157 483.5 617.5 484.843 617.5 486.5 617.5 488.157 616.157 489.5 614.5 489.5 612.843 489.5 611.5 488.157 611.5 486.5Z" stroke="#FF0000" stroke-width="1.33333" stroke-miterlimit="8" fill="#FF0000" fill-rule="evenodd"/><text font-family="Calibri,Calibri_MSFontService,sans-serif" font-weight="700" font-size="24" transform="translate(605.879 99)">Tree B</text><path d="M614 487 666.464 487" stroke="#FF0000" stroke-width="2" stroke-miterlimit="8" fill="none" fill-rule="evenodd"/><path d="M619.508 459.659C632.41 463.626 643.156 473.685 643.509 482.125 643.573 483.653 643.287 485.064 642.659 486.312" stroke="#FF0000" stroke-width="1.33333" stroke-miterlimit="8" fill="none" fill-rule="evenodd"/><path d="M0.327496-0.0621062 10.062 51.2693 9.40696 51.3935-0.327496 0.0621062ZM13.416 49.2762 10.9766 57.8814 5.55608 50.7667Z" transform="matrix(1 0 0 -1 614.5 487.381)"/><path d="M0.324131-0.0777826 26.8444 110.436 26.1961 110.591-0.324131 0.0777826ZM30.0987 108.284 28.0759 116.996 22.3195 110.15Z" transform="matrix(1 0 0 -1 614.5 483.496)"/><path d="M0.32193-0.0864424 45.9308 169.771 45.287 169.944-0.32193 0.0864424ZM49.1263 167.532 47.3377 176.296 41.4 169.607Z" transform="matrix(1 0 0 -1 614.5 483.796)"/><path d="M0.321017-0.0897732 62.2084 221.211 61.5663 221.391-0.321017 0.0897732ZM65.3804 218.939 63.6827 227.721 57.676 221.094Z" transform="matrix(1 0 0 -1 614.5 484.221)"/><path d="M0.319738-0.0942255 81.6175 275.776 80.978 275.964-0.319738 0.0942255ZM84.7579 273.461 83.1825 282.266 77.0842 275.723Z" transform="matrix(1 0 0 -1 614.5 483.766)"/><path d="M0.317985-0.0999829 105.86 335.565 105.224 335.765-0.317985 0.0999829ZM108.958 333.193 107.541 342.024 101.326 335.592Z" transform="matrix(1 0 0 -1 614.5 483.524)"/><path d="M734.5 489C734.5 484.858 745.917 481.5 760 481.5 774.083 481.5 785.5 484.858 785.5 489 785.5 493.142 774.083 496.5 760 496.5 745.917 496.5 734.5 493.142 734.5 489Z" stroke="#2F528F" stroke-width="1.33333" stroke-miterlimit="8" fill="none" fill-rule="evenodd"/><path d="M751.5 429.5C751.5 425.634 761.797 422.5 774.5 422.5 787.203 422.5 797.5 425.634 797.5 429.5 797.5 433.366 787.203 436.5 774.5 436.5 761.797 436.5 751.5 433.366 751.5 429.5Z" stroke="#2F528F" stroke-width="1.33333" stroke-miterlimit="8" fill="none" fill-rule="evenodd"/><path d="M769.5 366C769.5 361.858 778.007 358.5 788.5 358.5 798.993 358.5 807.5 361.858 807.5 366 807.5 370.142 798.993 373.5 788.5 373.5 778.007 373.5 769.5 370.142 769.5 366Z" stroke="#2F528F" stroke-width="1.33333" stroke-miterlimit="8" fill="none" fill-rule="evenodd"/><path d="M830.5 201.5C830.5 198.186 836.32 195.5 843.5 195.5 850.68 195.5 856.5 198.186 856.5 201.5 856.5 204.814 850.68 207.5 843.5 207.5 836.32 207.5 830.5 204.814 830.5 201.5Z" stroke="#2F528F" stroke-width="1.33333" stroke-miterlimit="8" fill="none" fill-rule="evenodd"/><path d="M856.5 142C856.5 138.962 861.873 136.5 868.5 136.5 875.128 136.5 880.5 138.962 880.5 142 880.5 145.038 875.128 147.5 868.5 147.5 861.873 147.5 856.5 145.038 856.5 142Z" stroke="#2F528F" stroke-width="1.33333" stroke-miterlimit="8" fill="none" fill-rule="evenodd"/><path d="M791.5 307.5C791.5 304.186 798.216 301.5 806.5 301.5 814.784 301.5 821.5 304.186 821.5 307.5 821.5 310.814 814.784 313.5 806.5 313.5 798.216 313.5 791.5 310.814 791.5 307.5Z" stroke="#2F528F" stroke-width="1.33333" stroke-miterlimit="8" fill="none" fill-rule="evenodd"/><path d="M807.5 255.5C807.5 252.186 814.44 249.5 823 249.5 831.56 249.5 838.5 252.186 838.5 255.5 838.5 258.814 831.56 261.5 823 261.5 814.44 261.5 807.5 258.814 807.5 255.5Z" stroke="#2F528F" stroke-width="1.33333" stroke-miterlimit="8" fill="none" fill-rule="evenodd"/><path d="M865.5 142C865.5 140.619 866.843 139.5 868.5 139.5 870.157 139.5 871.5 140.619 871.5 142 871.5 143.381 870.157 144.5 868.5 144.5 866.843 144.5 865.5 143.381 865.5 142Z" stroke="#FF0000" stroke-width="1.33333" stroke-miterlimit="8" fill="#FF0000" fill-rule="evenodd"/><path d="M841.5 201.5C841.5 199.843 842.843 198.5 844.5 198.5 846.157 198.5 847.5 199.843 847.5 201.5 847.5 203.157 846.157 204.5 844.5 204.5 842.843 204.5 841.5 203.157 841.5 201.5Z" stroke="#FF0000" stroke-width="1.33333" stroke-miterlimit="8" fill="#FF0000" fill-rule="evenodd"/><path d="M820.5 255.5C820.5 253.843 821.619 252.5 823 252.5 824.381 252.5 825.5 253.843 825.5 255.5 825.5 257.157 824.381 258.5 823 258.5 821.619 258.5 820.5 257.157 820.5 255.5Z" stroke="#FF0000" stroke-width="1.33333" stroke-miterlimit="8" fill="#FF0000" fill-rule="evenodd"/><path d="M803.5 306.5C803.5 304.843 804.843 303.5 806.5 303.5 808.157 303.5 809.5 304.843 809.5 306.5 809.5 308.157 808.157 309.5 806.5 309.5 804.843 309.5 803.5 308.157 803.5 306.5Z" stroke="#FF0000" stroke-width="1.33333" stroke-miterlimit="8" fill="#FF0000" fill-rule="evenodd"/><path d="M784.5 366C784.5 364.619 785.843 363.5 787.5 363.5 789.157 363.5 790.5 364.619 790.5 366 790.5 367.381 789.157 368.5 787.5 368.5 785.843 368.5 784.5 367.381 784.5 366Z" stroke="#FF0000" stroke-width="1.33333" stroke-miterlimit="8" fill="#FF0000" fill-rule="evenodd"/><path d="M771.5 429.5C771.5 427.843 772.843 426.5 774.5 426.5 776.157 426.5 777.5 427.843 777.5 429.5 777.5 431.157 776.157 432.5 774.5 432.5 772.843 432.5 771.5 431.157 771.5 429.5Z" stroke="#FF0000" stroke-width="1.33333" stroke-miterlimit="8" fill="#FF0000" fill-rule="evenodd"/><path d="M756.5 488.5C756.5 486.843 757.843 485.5 759.5 485.5 761.157 485.5 762.5 486.843 762.5 488.5 762.5 490.157 761.157 491.5 759.5 491.5 757.843 491.5 756.5 490.157 756.5 488.5Z" stroke="#FF0000" stroke-width="1.33333" stroke-miterlimit="8" fill="#FF0000" fill-rule="evenodd"/><path d="M0.325563-0.0715518 11.6304 51.3658 10.9793 51.5089-0.325563 0.0715518ZM14.9254 49.2764 12.7359 57.9486 7.11185 50.9937Z" transform="matrix(1 0 0 -1 774.5 426.449)"/><text font-family="Calibri,Calibri_MSFontService,sans-serif" font-weight="400" font-size="19" transform="translate(567.1 523)">Tree B <tspan font-size="19" x="51.4266" y="0">–</tspan><tspan font-size="19" x="0" y="23">Section </tspan><tspan font-size="19" x="60.1666" y="23">1</tspan><tspan font-size="19" x="145.011" y="0">Tree B </tspan><tspan font-size="19" x="196.438" y="0">–</tspan><tspan font-size="19" x="145.011" y="23">Section </tspan><tspan font-size="19" x="205.178" y="23">2</tspan><tspan font-size="19" x="277.918" y="-1">Tree B </tspan><tspan font-size="19" x="329.344" y="-1">–</tspan><tspan font-size="19" x="277.918" y="22">Section </tspan><tspan font-size="19" x="338.084" y="22">5</tspan><tspan font-size="19" x="425.929" y="-1">Tree B </tspan><tspan font-size="19" x="477.356" y="-1">–</tspan><tspan font-size="19" x="425.929" y="22">Section </tspan><tspan font-size="19" x="486.096" y="22">7</tspan></text><path d="M0.321573-0.0877592 30.5641 110.729 29.9209 110.904-0.321573 0.0877592ZM33.7504 108.477 31.9977 117.248 26.0326 110.584Z" transform="matrix(1 0 0 -1 774.5 426.748)"/><path d="M0.320432-0.0918377 46.8263 162.173 46.1855 162.356-0.320432 0.0918377ZM49.9838 159.881 48.3427 168.673 42.2934 162.085Z" transform="matrix(1 0 0 -1 774.5 427.173)"/><path d="M0.323638-0.0798074 12.0876 47.6259 11.4403 47.7855-0.323638 0.0798074ZM15.3284 45.4535 13.3601 54.1785 7.56106 47.3688Z" transform="matrix(-1 0 0 1 772.86 431.5)"/><path d="M0.318928-0.0969316 66.2229 216.743 65.585 216.937-0.318928 0.0969316ZM69.3432 214.4 67.8424 223.218 61.6889 216.727Z" transform="matrix(1 0 0 -1 774.5 426.718)"/><path d="M0.316934-0.103266 90.4532 276.535 89.8193 276.741-0.316934 0.103266ZM93.5262 274.131 92.2014 282.976 85.9198 276.609Z" transform="matrix(1 0 0 -1 774.5 426.476)"/><path d="M862.5 489C862.5 484.858 873.917 481.5 888 481.5 902.083 481.5 913.5 484.858 913.5 489 913.5 493.142 902.083 496.5 888 496.5 873.917 496.5 862.5 493.142 862.5 489Z" stroke="#2F528F" stroke-width="1.33333" stroke-miterlimit="8" fill="none" fill-rule="evenodd"/><path d="M879.5 429.5C879.5 425.634 889.797 422.5 902.5 422.5 915.203 422.5 925.5 425.634 925.5 429.5 925.5 433.366 915.203 436.5 902.5 436.5 889.797 436.5 879.5 433.366 879.5 429.5Z" stroke="#2F528F" stroke-width="1.33333" stroke-miterlimit="8" fill="none" fill-rule="evenodd"/><path d="M897.5 366C897.5 361.858 905.783 358.5 916 358.5 926.217 358.5 934.5 361.858 934.5 366 934.5 370.142 926.217 373.5 916 373.5 905.783 373.5 897.5 370.142 897.5 366Z" stroke="#2F528F" stroke-width="1.33333" stroke-miterlimit="8" fill="none" fill-rule="evenodd"/><path d="M958.5 201.5C958.5 198.186 964.32 195.5 971.5 195.5 978.68 195.5 984.5 198.186 984.5 201.5 984.5 204.814 978.68 207.5 971.5 207.5 964.32 207.5 958.5 204.814 958.5 201.5Z" stroke="#2F528F" stroke-width="1.33333" stroke-miterlimit="8" fill="none" fill-rule="evenodd"/><path d="M984.5 142C984.5 138.962 989.873 136.5 996.5 136.5 1003.13 136.5 1008.5 138.962 1008.5 142 1008.5 145.038 1003.13 147.5 996.5 147.5 989.873 147.5 984.5 145.038 984.5 142Z" stroke="#2F528F" stroke-width="1.33333" stroke-miterlimit="8" fill="none" fill-rule="evenodd"/><path d="M919.5 307.5C919.5 304.186 926.216 301.5 934.5 301.5 942.784 301.5 949.5 304.186 949.5 307.5 949.5 310.814 942.784 313.5 934.5 313.5 926.216 313.5 919.5 310.814 919.5 307.5Z" stroke="#2F528F" stroke-width="1.33333" stroke-miterlimit="8" fill="none" fill-rule="evenodd"/><path d="M935.5 255.5C935.5 252.186 942.44 249.5 951 249.5 959.56 249.5 966.5 252.186 966.5 255.5 966.5 258.814 959.56 261.5 951 261.5 942.44 261.5 935.5 258.814 935.5 255.5Z" stroke="#2F528F" stroke-width="1.33333" stroke-miterlimit="8" fill="none" fill-rule="evenodd"/><path d="M993.5 142C993.5 140.619 994.843 139.5 996.5 139.5 998.157 139.5 999.5 140.619 999.5 142 999.5 143.381 998.157 144.5 996.5 144.5 994.843 144.5 993.5 143.381 993.5 142Z" stroke="#FF0000" stroke-width="1.33333" stroke-miterlimit="8" fill="#FF0000" fill-rule="evenodd"/><path d="M969.5 201.5C969.5 199.843 970.843 198.5 972.5 198.5 974.157 198.5 975.5 199.843 975.5 201.5 975.5 203.157 974.157 204.5 972.5 204.5 970.843 204.5 969.5 203.157 969.5 201.5Z" stroke="#FF0000" stroke-width="1.33333" stroke-miterlimit="8" fill="#FF0000" fill-rule="evenodd"/><path d="M948.5 255.5C948.5 253.843 949.619 252.5 951 252.5 952.381 252.5 953.5 253.843 953.5 255.5 953.5 257.157 952.381 258.5 951 258.5 949.619 258.5 948.5 257.157 948.5 255.5Z" stroke="#FF0000" stroke-width="1.33333" stroke-miterlimit="8" fill="#FF0000" fill-rule="evenodd"/><path d="M931.5 306.5C931.5 304.843 932.843 303.5 934.5 303.5 936.157 303.5 937.5 304.843 937.5 306.5 937.5 308.157 936.157 309.5 934.5 309.5 932.843 309.5 931.5 308.157 931.5 306.5Z" stroke="#FF0000" stroke-width="1.33333" stroke-miterlimit="8" fill="#FF0000" fill-rule="evenodd"/><path d="M912.5 366C912.5 364.619 913.843 363.5 915.5 363.5 917.157 363.5 918.5 364.619 918.5 366 918.5 367.381 917.157 368.5 915.5 368.5 913.843 368.5 912.5 367.381 912.5 366Z" stroke="#FF0000" stroke-width="1.33333" stroke-miterlimit="8" fill="#FF0000" fill-rule="evenodd"/><path d="M899.5 429.5C899.5 427.843 900.843 426.5 902.5 426.5 904.157 426.5 905.5 427.843 905.5 429.5 905.5 431.157 904.157 432.5 902.5 432.5 900.843 432.5 899.5 431.157 899.5 429.5Z" stroke="#FF0000" stroke-width="1.33333" stroke-miterlimit="8" fill="#FF0000" fill-rule="evenodd"/><path d="M884.5 488.5C884.5 486.843 885.843 485.5 887.5 485.5 889.157 485.5 890.5 486.843 890.5 488.5 890.5 490.157 889.157 491.5 887.5 491.5 885.843 491.5 884.5 490.157 884.5 488.5Z" stroke="#FF0000" stroke-width="1.33333" stroke-miterlimit="8" fill="#FF0000" fill-rule="evenodd"/><text font-family="Calibri,Calibri_MSFontService,sans-serif" font-weight="400" font-size="19" transform="translate(951.252 529)">…</text><path d="M1000.5 489.5C1000.5 485.634 1011.92 482.5 1026 482.5 1040.08 482.5 1051.5 485.634 1051.5 489.5 1051.5 493.366 1040.08 496.5 1026 496.5 1011.92 496.5 1000.5 493.366 1000.5 489.5Z" stroke="#2F528F" stroke-width="1.33333" stroke-miterlimit="8" fill="none" fill-rule="evenodd"/><path d="M1018.5 430C1018.5 426.41 1028.57 423.5 1041 423.5 1053.43 423.5 1063.5 426.41 1063.5 430 1063.5 433.59 1053.43 436.5 1041 436.5 1028.57 436.5 1018.5 433.59 1018.5 430Z" stroke="#2F528F" stroke-width="1.33333" stroke-miterlimit="8" fill="none" fill-rule="evenodd"/><path d="M1035.5 367C1035.5 362.858 1044.01 359.5 1054.5 359.5 1064.99 359.5 1073.5 362.858 1073.5 367 1073.5 371.142 1064.99 374.5 1054.5 374.5 1044.01 374.5 1035.5 371.142 1035.5 367Z" stroke="#2F528F" stroke-width="1.33333" stroke-miterlimit="8" fill="none" fill-rule="evenodd"/><path d="M1096.5 202.5C1096.5 199.186 1102.54 196.5 1110 196.5 1117.46 196.5 1123.5 199.186 1123.5 202.5 1123.5 205.814 1117.46 208.5 1110 208.5 1102.54 208.5 1096.5 205.814 1096.5 202.5Z" stroke="#2F528F" stroke-width="1.33333" stroke-miterlimit="8" fill="none" fill-rule="evenodd"/><path d="M1123.5 143C1123.5 139.962 1128.87 137.5 1135.5 137.5 1142.13 137.5 1147.5 139.962 1147.5 143 1147.5 146.038 1142.13 148.5 1135.5 148.5 1128.87 148.5 1123.5 146.038 1123.5 143Z" stroke="#2F528F" stroke-width="1.33333" stroke-miterlimit="8" fill="none" fill-rule="evenodd"/><path d="M1057.5 308C1057.5 304.962 1064.44 302.5 1073 302.5 1081.56 302.5 1088.5 304.962 1088.5 308 1088.5 311.038 1081.56 313.5 1073 313.5 1064.44 313.5 1057.5 311.038 1057.5 308Z" stroke="#2F528F" stroke-width="1.33333" stroke-miterlimit="8" fill="none" fill-rule="evenodd"/><path d="M1074.5 256C1074.5 252.962 1081.22 250.5 1089.5 250.5 1097.78 250.5 1104.5 252.962 1104.5 256 1104.5 259.038 1097.78 261.5 1089.5 261.5 1081.22 261.5 1074.5 259.038 1074.5 256Z" stroke="#2F528F" stroke-width="1.33333" stroke-miterlimit="8" fill="none" fill-rule="evenodd"/><path d="M1132.5 142.5C1132.5 140.843 1133.84 139.5 1135.5 139.5 1137.16 139.5 1138.5 140.843 1138.5 142.5 1138.5 144.157 1137.16 145.5 1135.5 145.5 1133.84 145.5 1132.5 144.157 1132.5 142.5Z" stroke="#FF0000" stroke-width="1.33333" stroke-miterlimit="8" fill="#FF0000" fill-rule="evenodd"/><path d="M1108.5 202.5C1108.5 200.843 1109.62 199.5 1111 199.5 1112.38 199.5 1113.5 200.843 1113.5 202.5 1113.5 204.157 1112.38 205.5 1111 205.5 1109.62 205.5 1108.5 204.157 1108.5 202.5Z" stroke="#FF0000" stroke-width="1.33333" stroke-miterlimit="8" fill="#FF0000" fill-rule="evenodd"/><path d="M1086.5 256.5C1086.5 254.843 1087.84 253.5 1089.5 253.5 1091.16 253.5 1092.5 254.843 1092.5 256.5 1092.5 258.157 1091.16 259.5 1089.5 259.5 1087.84 259.5 1086.5 258.157 1086.5 256.5Z" stroke="#FF0000" stroke-width="1.33333" stroke-miterlimit="8" fill="#FF0000" fill-rule="evenodd"/><path d="M1070.5 307.5C1070.5 305.843 1071.62 304.5 1073 304.5 1074.38 304.5 1075.5 305.843 1075.5 307.5 1075.5 309.157 1074.38 310.5 1073 310.5 1071.62 310.5 1070.5 309.157 1070.5 307.5Z" stroke="#FF0000" stroke-width="1.33333" stroke-miterlimit="8" fill="#FF0000" fill-rule="evenodd"/><path d="M1051.5 367C1051.5 365.619 1052.62 364.5 1054 364.5 1055.38 364.5 1056.5 365.619 1056.5 367 1056.5 368.381 1055.38 369.5 1054 369.5 1052.62 369.5 1051.5 368.381 1051.5 367Z" stroke="#FF0000" stroke-width="1.33333" stroke-miterlimit="8" fill="#FF0000" fill-rule="evenodd"/><path d="M1038.5 430.5C1038.5 428.843 1039.62 427.5 1041 427.5 1042.38 427.5 1043.5 428.843 1043.5 430.5 1043.5 432.157 1042.38 433.5 1041 433.5 1039.62 433.5 1038.5 432.157 1038.5 430.5Z" stroke="#FF0000" stroke-width="1.33333" stroke-miterlimit="8" fill="#FF0000" fill-rule="evenodd"/><path d="M1022.5 489.5C1022.5 487.843 1023.84 486.5 1025.5 486.5 1027.16 486.5 1028.5 487.843 1028.5 489.5 1028.5 491.157 1027.16 492.5 1025.5 492.5 1023.84 492.5 1022.5 491.157 1022.5 489.5Z" stroke="#FF0000" stroke-width="1.33333" stroke-miterlimit="8" fill="#FF0000" fill-rule="evenodd"/><path d="M0.308665-0.125846 20.1707 48.5901 19.5534 48.8418-0.308665 0.125846ZM23.0627 45.9711 22.379 54.8892 15.6547 48.9914Z" transform="matrix(-1 0 0 1 1132.88 144.5)"/><path d="M0.309079-0.124825 41.6713 102.292 41.0531 102.542-0.309079 0.124825ZM44.5718 99.6827 43.8587 108.599 37.1539 102.679Z" transform="matrix(-1 0 0 1 1133.36 144.5)"/><path d="M0.311985-0.117374 58.1682 153.667 57.5442 153.901-0.311985 0.117374ZM61.1305 151.128 60.2037 160.024 53.6429 153.944Z" transform="matrix(-1 0 0 1 1133.7 144.5)"/><path d="M0.313397-0.11355 77.5077 212.941 76.8809 213.168-0.313397 0.11355ZM80.5011 210.439 79.4655 219.323 72.9795 213.164Z" transform="matrix(-1 0 0 1 1132.97 144.5)"/><path d="M0.316934-0.103266 90.4532 276.535 89.8193 276.741-0.316934 0.103266ZM93.5262 274.131 92.2014 282.976 85.9198 276.609Z" transform="matrix(-1 0 0 1 1133.7 144.5)"/><path d="M0.317985-0.0999829 105.86 335.565 105.224 335.765-0.317985 0.0999829ZM108.958 333.193 107.541 342.024 101.326 335.592Z" transform="matrix(-1 0 0 1 1133.04 144.5)"/><text font-family="Arial,Arial_MSFontService,sans-serif" font-weight="400" font-size="13" transform="translate(643.301 466)">Angles<tspan font-size="9" x="40.5" y="2">S1_1</tspan><tspan font-size="9" x="61.5" y="2">-</tspan><tspan font-size="9" x="64.5" y="2">8</tspan><tspan font-size="13" x="133.793" y="1">Angles</tspan><tspan font-size="9" x="174.293" y="3">S2_1</tspan><tspan font-size="9" x="195.293" y="3">-</tspan><tspan font-size="9" x="198.293" y="3">8</tspan><tspan font-size="13" x="260.177" y="5">Angles</tspan><tspan font-size="9" x="300.677" y="7">S5_1</tspan><tspan font-size="9" x="321.677" y="7">-</tspan><tspan font-size="9" x="324.677" y="7">8</tspan><tspan font-size="13" x="403.316" y="8">Angles</tspan><tspan font-size="9" x="443.816" y="10">S7_1</tspan><tspan font-size="9" x="464.816" y="10">-</tspan><tspan font-size="9" x="467.816" y="10">8</tspan></text><path d="M701.5 299.5C701.5 296.186 708.216 293.5 716.5 293.5 724.784 293.5 731.5 296.186 731.5 299.5 731.5 302.814 724.784 305.5 716.5 305.5 708.216 305.5 701.5 302.814 701.5 299.5Z" stroke="#2F528F" stroke-width="1.33333" stroke-miterlimit="8" fill="none" fill-rule="evenodd"/><path d="M713.5 300C713.5 298.619 714.843 297.5 716.5 297.5 718.157 297.5 719.5 298.619 719.5 300 719.5 301.381 718.157 302.5 716.5 302.5 714.843 302.5 713.5 301.381 713.5 300Z" stroke="#FF0000" stroke-width="1.33333" stroke-miterlimit="8" fill="#FF0000" fill-rule="evenodd"/><path d="M856.5 299.5C856.5 296.186 863.216 293.5 871.5 293.5 879.784 293.5 886.5 296.186 886.5 299.5 886.5 302.814 879.784 305.5 871.5 305.5 863.216 305.5 856.5 302.814 856.5 299.5Z" stroke="#2F528F" stroke-width="1.33333" stroke-miterlimit="8" fill="none" fill-rule="evenodd"/><path d="M868.5 300C868.5 298.619 869.843 297.5 871.5 297.5 873.157 297.5 874.5 298.619 874.5 300 874.5 301.381 873.157 302.5 871.5 302.5 869.843 302.5 868.5 301.381 868.5 300Z" stroke="#FF0000" stroke-width="1.33333" stroke-miterlimit="8" fill="#FF0000" fill-rule="evenodd"/><path d="M981.5 299.5C981.5 296.186 988.216 293.5 996.5 293.5 1004.78 293.5 1011.5 296.186 1011.5 299.5 1011.5 302.814 1004.78 305.5 996.5 305.5 988.216 305.5 981.5 302.814 981.5 299.5Z" stroke="#2F528F" stroke-width="1.33333" stroke-miterlimit="8" fill="none" fill-rule="evenodd"/><path d="M993.5 300C993.5 298.619 994.843 297.5 996.5 297.5 998.157 297.5 999.5 298.619 999.5 300 999.5 301.381 998.157 302.5 996.5 302.5 994.843 302.5 993.5 301.381 993.5 300Z" stroke="#FF0000" stroke-width="1.33333" stroke-miterlimit="8" fill="#FF0000" fill-rule="evenodd"/><path d="M1132.5 299.5C1132.5 296.186 1139.22 293.5 1147.5 293.5 1155.78 293.5 1162.5 296.186 1162.5 299.5 1162.5 302.814 1155.78 305.5 1147.5 305.5 1139.22 305.5 1132.5 302.814 1132.5 299.5Z" stroke="#2F528F" stroke-width="1.33333" stroke-miterlimit="8" fill="none" fill-rule="evenodd"/><path d="M1144.5 300C1144.5 298.619 1145.62 297.5 1147 297.5 1148.38 297.5 1149.5 298.619 1149.5 300 1149.5 301.381 1148.38 302.5 1147 302.5 1145.62 302.5 1144.5 301.381 1144.5 300Z" stroke="#FF0000" stroke-width="1.33333" stroke-miterlimit="8" fill="#FF0000" fill-rule="evenodd"/><path d="M0.29032-0.163784 99.1808 175.128 98.6002 175.455-0.29032 0.163784ZM101.719 172.165 102.166 181.098 94.7514 176.096Z" transform="matrix(1 0 0 -1 614.5 483.598)"/><path d="M0.265559-0.201469 90.9947 119.39 90.4636 119.793-0.265559 0.201469ZM93.11 116.111 94.7585 124.902 86.7366 120.947Z" transform="matrix(1 0 0 -1 774.5 427.403)"/><path d="M1133.83 144.474 1145.22 290.967 1144.56 291.018 1133.17 144.526ZM1148.77 289.353 1145.41 297.639 1140.8 289.973Z"/><path d="M0.289612-0.165034 102.288 178.828 101.709 179.158-0.289612 0.165034ZM104.814 175.854 105.299 184.786 97.8633 179.815Z" transform="matrix(-1 0 0 1 994.799 302.5)"/><path d="M0.271095-0.193955 86.3513 120.122 85.8091 120.51-0.271095 0.193955ZM88.5576 116.904 89.9594 125.738 82.0513 121.559Z" transform="matrix(-1 0 0 1 994.459 302.5)"/><path d="M0.208859-0.259787 72.2366 57.6477 71.8189 58.1673-0.208859 0.259787ZM73.4949 53.9547 77.2235 62.0847 68.4823 60.1896Z" transform="matrix(-1 0 0 1 994.724 302.5)"/><path d="M0.0400644-0.330917 49.7433 5.68669 49.6632 6.34853-0.0400644 0.330917ZM48.8603 1.88635 56.3216 6.8189 47.8988 9.82835Z" transform="matrix(-1 0 0 1 993.822 299.5)"/><path d="M994.056 298.32 957.871 260.545 958.352 260.084 994.537 297.859ZM956.145 264.044 953.5 255.5 961.923 258.51Z"/><path d="M996.274 297.195 973.856 211.036 974.501 210.868 996.92 297.027ZM970.643 213.25 972.5 204.5 978.386 211.235Z"/><path d="M0.333333-0.000573271 0.583915 145.702-0.082751 145.703-0.333333 0.000573271ZM4.24828 144.362 0.262047 152.369-3.75171 144.376Z" transform="matrix(1 0 0 -1 996.5 296.869)"/><text font-family="Calibri,Calibri_MSFontService,sans-serif" font-weight="400" font-size="19" transform="translate(454.444 178)">…<tspan font-size="19" x="592.967" y="-3">…</tspan><tspan font-size="19" x="456.569" y="-2">…</tspan><tspan font-size="24" x="551.18" y="61">Outlier</tspan></text><path d="M0.269191-0.19659 24.8 33.3934 24.2616 33.7866-0.269191 0.19659ZM26.9747 30.1542 28.4626 38.9739 20.5141 34.8724Z" fill="#FF0000" transform="matrix(-1 0 0 1 1040.96 251.5)"/></g></svg>